<?xml version="1.0" encoding="utf-8"?>
<!-- Generator: Adobe Illustrator 24.0.1, SVG Export Plug-In . SVG Version: 6.00 Build 0)  -->
<svg version="1.1" id="e80k742hpsdj1" shape-rendering="geometricPrecision" text-rendering="geometricPrecision"
	 xmlns="http://www.w3.org/2000/svg" xmlns:xlink="http://www.w3.org/1999/xlink" x="0px" y="0px" viewBox="0 0 130 130"
	 style="enable-background:new 0 0 130 130;" xml:space="preserve">
<style type="text/css">
	.st0{fill:#1AABE3;}
	.st1{clip-path:url(#SVGID_2_);}
	.st2{fill:#FFFFFF;}
	.st3{fill:none;}
</style>
<path id="e80k742hpsdj4" class="st0" d="M107.9,88.6c0.1-5.1-0.2-10.2-0.4-15.3c-0.2-4.4-0.4-8.8-0.5-13.1c-0.1-7.1-0.4-14.1-1-21.2
	c-0.1-2-0.2-3.9-0.4-5.9c-0.4-3.2-0.9-6.4-1.7-9.5c-1-4.9-3.3-8.8-7.8-11s-9.4-1.7-14.1-1.5c-3.5,0.1-6.9,0.6-10.4,1
	c-3.1,0.3-6.1,0.5-9.2,0.8c-3.4,0.3-6.8,0.7-10.3,1.1c-2.5,0.3-5.1,0.3-7.6,0.7c-5.4,0.8-10.9,1-16.3,1.8c-2.6,0.2-5.3,0.5-7.9,1
	c-4.6,1.1-8.2,3.3-9.7,8.1c-0.5,1.6-0.9,3.3-1.2,5c-0.6,2.6-1.1,5.2-1.4,7.8c-0.4,5.7-0.9,11.3-1.1,17c-0.2,6-0.8,11.9-0.6,17.9
	c0.1,2.2,0,4.4-0.1,6.6c0,3-0.1,6.1-0.4,9.1c-0.4,2.7,0.4,5.4,0.6,8.2c0.1,1.8,0.6,3.5,1.6,5c2.1,3.2,5.4,4.2,8.9,4.6
	c4.4,0.5,8.7,1.4,13,2c4.1,0.6,8.2,1,12.3,1.5c2.7,0.3,5.4,0.6,8.1,1c3.1,0.4,6.3,0.8,9.4,1.1c3.1,0.3,6.1,0.5,9.2,0.8
	c4.4,0.7,8.8,1,13.2,1c0.4,0,0.8,0,1.2,0.1c3.1,0.6,6.3,0.8,9.5,0.6c1.9-0.2,3.9,0.1,5.7-0.8c1.2-0.6,2.4-1.3,3.5-2.2
	c3.7-2.5,5.3-6.2,5.7-10.4C107.9,97.2,107.9,92.9,107.9,88.6z"/>
<g id="e80k742hpsdj5_tr" transform="translate(67.577713,113.150000) rotate(-2)">
	<g id="e80k742hpsdj5" transform="translate(-67.577713,-113.150000)">
		<g>
			<defs>
				<path id="SVGID_1_" d="M107.9,89.7c0.1-5.1-0.2-10.2-0.4-15.2c-0.2-4.4-0.4-8.8-0.5-13.1c-0.1-7.1-0.4-14.1-1-21.2
					c-0.1-2-0.2-3.9-0.4-5.9c-0.4-3.2-0.9-6.4-1.7-9.5c-1-4.9-3.3-8.8-7.8-11s-9.4-1.7-14.1-1.5c-3.5,0.1-6.9,0.6-10.4,1
					c-3.1,0.3-6.1,0.5-9.2,0.8c-3.4,0.3-6.8,0.7-10.3,1.1c-2.5,0.3-5.1,0.3-7.6,0.7c-5.4,0.8-10.9,1-16.3,1.8
					c-2.6,0.2-5.3,0.5-7.9,1c-4.6,1.1-8.2,3.3-9.7,8.1c-0.5,1.6-0.9,3.3-1.2,5c-0.6,2.6-1.1,5.2-1.4,7.8c-0.4,5.6-0.9,11.3-1.1,17
					c-0.2,6-0.7,11.9-0.6,17.9c0.1,2.2,0,4.4-0.1,6.6c0,3-0.1,6.1-0.4,9.1c-0.4,2.7,0.4,5.4,0.6,8.2c0.1,1.8,0.6,3.5,1.6,5
					c2.1,3.2,5.4,4.2,8.9,4.6c4.4,0.5,8.7,1.4,13,2c4.1,0.6,8.2,1,12.3,1.5c2.7,0.3,5.4,0.6,8.1,1c3.1,0.4,6.3,0.8,9.4,1.1
					c3.1,0.3,6.1,0.5,9.2,0.8c4.4,0.7,8.8,1,13.2,1c0.4,0,0.8,0,1.2,0.1c3.1,0.6,6.3,0.8,9.5,0.6c1.9-0.2,3.9,0.1,5.7-0.8
					c1.2-0.6,2.4-1.3,3.5-2.2c3.7-2.5,5.3-6.2,5.7-10.4C107.9,98.3,107.9,94,107.9,89.7z"/>
			</defs>
			<clipPath id="SVGID_2_">
				<use xlink:href="#SVGID_1_"  style="overflow:visible;"/>
			</clipPath>
			<g id="e80k742hpsdj6" transform="matrix(1 0 0 1 0 1)" class="st1">
				<g id="e80k742hpsdj7">
					<path id="e80k742hpsdj8" class="st2" d="M82.1,30.5l-0.3,0.1l-0.2-1c-4.2-1.1-8.3-2.2-12.5-3.3c0,0,0-0.1-0.1-0.1h-0.3
						c-1.9,0.6-3.9,1.1-5.8,1.7c-6.6,2-13.2,4-19.7,6C36.5,36,29.7,38.2,23,40.3c-1.1,0.4-2.1,0.9-3.3,1.3c-1.3,0.4-1.8,1.7-1.9,3
						L18,55.3c0.1,0.2,0,0.3,0.1,0.6c0.6,4.5,0.6,9,1.2,13.6c0.6,3.7,1.2,7.4,2.1,11c2,7.8,4.4,15.4,7.5,22.8
						c0.8,1.9,1.5,3.7,2.4,5.5c0.2,0.4,4.7,10.5,5.1,10.6c5.3,0.7,6-0.8,11.3-0.1c4.1,0.5,8.2-0.5,12.2,0l45.2,0l2.8-8.4L82.1,30.5z
						"/>
					<path id="e80k742hpsdj9" class="st3" d="M71.2,29.9c-1.2-0.4-2.5-0.5-3.8-0.3c-4,1-8,2.1-11.9,3.2c-7.3,2.2-14.6,4.5-21.9,6.9
						l-10.3,3.2c3.4,0.8,6.4,1.3,9.4,2.1c0.3,0.1,0.6,0.1,0.9,0.2L33.1,44l34.2-11.7l7.7-0.8l2.5,0.1v-0.4
						C75.4,30.8,73.3,30.3,71.2,29.9z"/>
					<polygon id="e80k742hpsdj10" points="23.4,75.8 23.4,75.8 23.4,75.8 					"/>
					<path id="e80k742hpsdj11" d="M27.6,80L27.6,80L27.6,80z"/>
					<path id="e80k742hpsdj12" d="M30.6,90.5L30.6,90.5z"/>
					<path id="e80k742hpsdj13" d="M51,64.1l-12.7,4.8l-1.1-12.7L36.3,45l-2.9,0.2c-0.3,0-0.6-0.1-0.9-0.2c-3-0.8-6-1.4-9.4-2.1
						l10.4-3.2c7.3-2.3,14.6-4.6,21.9-6.8c3.9-1.2,7.9-2.3,11.9-3.2c1.3-0.1,2.6,0,3.8,0.3c2.1,0.4,4.3,0.9,6.4,1.4v0.3l5.8-1.5
						c-0.3-0.2-0.6-0.4-1-0.5c-4.2-1-8.4-2.2-12.6-3.3c-0.4-0.1-0.8-0.1-1.2-0.1c-4.7,1.3-9.4,2.4-14.1,3.8s-9.4,2.9-14,4.5
						c-7,2.3-14.1,4.7-21.1,7c-1.2,0.3-2.1,1.4-1.9,2.7c0.1,5.2-0.1,10.4,0.4,15.6c1.6,16.4,5.9,32.5,12.7,47.6
						c0.9,2.1,1.8,3.6,4.4,3.5c-4.6-9.5-8-20.4-10.5-30.6c0.9,0.1,1.7,0.8,1.8,1.7c0.7,2.7,1.4,5.4,2.2,8.1c2,7,4.6,13.8,7.8,20.4
						c0.5,1,0.6,1,1.6,0.8c-3-6.4-5.4-13.1-7.3-19.9c0.5,0.4,0.9,0.9,1.1,1.5c2.5,5.7,5,12.4,7.6,18c0.2,0.4,0.8,0.7,1.2,1l0.3-0.3
						c-3.7-7.7-6.8-15.6-9.3-23.8c0.9-0.3,1.3-0.1,1.6,0.8c0.5,1.6,1,3.2,1.6,4.8c1.7,4.3,3.4,8.5,5.1,12.8c0.1,0.3,0.6,0.6,1,0.8
						c0-0.4,0-0.9-0.1-1.3c-2.4-7.2-4.9-14.5-7.3-21.7c-0.1-0.3,0.1-0.8,0.2-1.2L33.1,83l-1.5-4.2l0.6-0.3c0.3,0.4,0.8,0.7,0.9,1.1
						c2.1,7,4,14,6.2,21c0.9,2.7,2,5.3,3.2,7.8c0.3,0.5,0.7,0.9,1.2,1.2c-4-11.2-7.4-22.6-9.9-34.2l2.8,0.6c0.1,0.3,0.2,0.7,0.2,1
						c1.8,12,5.3,23.6,10.5,34.6c0.2,0.4,0.6,0.7,1,0.9c0.8,0.2,1.7,0.3,2.5,0.3c-0.2-0.6-0.4-1-0.6-1.4c-4-9-7.7-19-9.5-28.7
						c-0.7-3.5-1.4-7-2-10.6c-0.1-0.6-0.4-1.6,0.5-2c0.9-0.4,11.3-4.3,12.3-4.6L51,64.1z M31.4,47.4c1.3,0.2,2.9,2.3,2.9,3.9
						L31.4,47.4L31.4,47.4z M29.6,47.7c1.1,1.7,2.4,3.3,3.8,4.8c1,1,1.5,2.4,1.1,3.8l-7.4-9.7C28.2,46.4,29.1,46.9,29.6,47.7z
						 M22.6,71.6c1.3,0.1,1.4,0.4,1.6,2.9C22.9,74.3,22.8,74.3,22.6,71.6z M24.1,79.2l-0.7-3.4l0,0l0,0c2.3,0.4,1.2,2.3,2.3,3.4
						H24.1z M25.2,72.3c1.8,0.2,1,1.8,1.6,2.6C25.4,75.2,25.1,74.6,25.2,72.3z M25.9,76.6c1.9,0.8,1.2,2.3,1.6,3.3l0,0l0,0l0,0
						C26.1,79.4,26.5,78,25.9,76.6z M27.4,81.6L27.4,81.6c0.9,0.3,0.9,0.3,1.7,3.7C28.1,85.4,27.9,84.9,27.4,81.6z M27.9,73.4
						c1.3,0.2,1.3,0.2,1.6,2.8l0,0C27.9,75.7,27.7,75.4,27.9,73.4L27.9,73.4z M30.7,81L30.7,81c-1.3-0.1-1.5,0-2-3.3
						C29.9,77.9,29.9,77.9,30.7,81L30.7,81z M30.7,90.5L30.7,90.5c-1-0.1-1-0.1-1.8-3.2C29.7,87.3,29.7,87.3,30.7,90.5L30.7,90.5z
						 M32.2,86.7c-1.5-0.4-2-1.5-2.2-4.1C31.3,82.6,31,82.3,32.2,86.7L32.2,86.7z M30.7,74.4L30.7,74.4c2.3,0.2,1.4,1.9,2,3.1
						C30.7,77.2,31.2,75.6,30.7,74.4z M28.4,66.2c-2.1-0.7-4.1-1.3-6.2-2.1c-0.4-0.2-1-0.6-1-1c-0.4-5.9-0.8-11.8-1.1-17.8
						c0-0.2,0.1-0.4,0.1-0.7c1.5,0.3,3,0.6,4.4,1c0.4,0.2,0.8,0.5,1.1,0.9c2.9,3.7,5.7,7.4,8.6,11.2c0.3,0.3,0.5,0.6,0.6,1
						c0.2,3.2,0.4,6.4,0.6,9.8C33,67.8,30.7,67,28.4,66.2z M36.4,75.5c-0.9-1.4-2.7-1.2-3.1-2.9C34.6,73.1,36.6,72.8,36.4,75.5
						L36.4,75.5z"/>
					<path id="e80k742hpsdj14" d="M75.7,29.4L30.8,45c0,0,0.6,2.3,2.3,1.6c10.8-3.7,27.4-9.3,38.2-12.9c2.1-0.7,4.2-1.4,6.3-2
						l0.2-1.3L75.7,29.4z"/>
					<path id="e80k742hpsdj15" d="M25.2,50.1c2,1.5,7.5,9.1,7.3,10.1C29.5,57.1,26.8,54,25.2,50.1z"/>
					<path id="e80k742hpsdj16" d="M27.8,58.8l-2.7-3.9l0.4-0.3l2.8,3.9L27.8,58.8z"/>
				</g>
			</g>
		</g>
		<g id="e80k742hpsdj17_tr" transform="translate(55.827257,37.660485) rotate(0)">
			<g id="e80k742hpsdj17" transform="translate(-55.927259,-36.755484)">
				<path id="e80k742hpsdj18" class="st2" d="M80.9,116.6l5.4,3.4c0,1-1.5,0.1-1,1.1h0.5c2.5-0.7,5.1-1.3,7.5-2.1
					c3.4-1.1,6.7-2.2,10-3.6c5-2.1,9.7-4.8,14-8c2-1.5,3.9-3.1,5.8-4.7c1.9-1.6,3.4-3.2,5.2-4.8l-7-3.9l-13.4-12.8l-6.8-7.6
					l-8.8-14.6l-4-7.4l-6.2-20.1L35.5,47l11.5,28.6l27.5,39.6l4.8,0.6C80.3,116,81.1,115.8,80.9,116.6z"/>
				<path id="e80k742hpsdj19" d="M53.1,91.7c4.7,7.8,10.2,15,16.5,21.5c0.7,0.7,1.6,1.1,2.6,1.1c2.3,0.1,4.4,0.3,6.3,2.2
					c1.9,1.6,3.9,3.1,6.1,4.3c0.5,0.3,1,0.4,1.6,0.3c5.1-1.4,10.2-2.5,15.1-4.5c10.6-4.2,20-10.8,27.6-19.3v-0.5
					c-2.4-1.4-4.8-2.9-7.1-4.5c-6.4-5-11.7-11.2-17.1-17.2c-6-6.5-10.8-14.1-14-22.3c-2.6-6.8-4.4-13.9-6.4-20.9
					c-0.1-0.6-0.4-1.2-0.9-1.6l-5.8,1.5c-2.1,0.7-4.2,1.3-6.3,2c-10.9,3.6-21.7,7.1-32.6,10.8c-1.7,0.7-3.5,0.9-5.3,0.6l3.9,11
					l3,8.5l0,0l1.7,4.5c0.2,0.3,0.3,0.7,0.5,1C45.4,77.6,49,84.8,53.1,91.7z M123.7,97.9c-4.4,4.4-9.4,8.2-14.8,11.3
					c-6.7,3.8-13.8,6.7-21.2,8.6c-0.8,0.3-1.7,0.1-2.3-0.4c-6.5-4.3-12-9.9-17.1-16c-8.1-9.8-15.2-20.4-21.1-31.6l-0.2-0.5
					l40.6-16.1C95.3,71.9,108.8,85.4,123.7,97.9z M37.6,47l43.5-13.8c2,6.3,3.9,12.4,5.9,18.5L46,68.2L37.6,47z"/>
				<path id="e80k742hpsdj20" d="M80.3,76l-8.4,3.1c-1.3,0.5-2.6,1-4,1.5c-0.4,0.1-1.1,0.1-1.2-0.1c-1.2-1.4-2.2-3-3.4-4.6
					c3.4-1.4,6.5-2.8,9.8-4.1c3.6-1.4,7.3-2.7,10.9-4.1c0.8-0.3,1.2,0,1.4,0.7c3.3,8.1,5.6,16.5,6.8,25.2c0.1,1.4,0.2,2.8,0.1,4.2
					c-0.1,0.4-0.3,0.8-0.7,1.1c-1.8,1-3.6,1.9-5.4,2.8c-0.9,0.5-1.1,0.2-1.2-0.7c-0.6-4.5-1-9-1.8-13.4c-0.6-3.4-1.5-6.8-2.3-10.2
					C80.7,76.9,80.5,76.5,80.3,76z"/>
				<path id="e80k742hpsdj21" d="M53.3,51.6c0.3-1.3,0.5-2.6,0.8-3.8c0-0.9,0.8-1.7,1.7-1.7c1,0,1.3,0.7,1.6,1.5
					c0.9,2.7,1.8,5.4,2.6,8.1c0.1,0.4,0.6,1.3-0.2,1.4s-1.1-0.5-1.3-0.9c-0.9-1.7-1.7-3.5-2.6-5.5c-0.2,1-0.3,1.7-0.5,2.4
					c-0.4,1.4-1.1,1.7-2.3,1c-0.6-0.3-1.1-0.7-2-1.2l1.5,4.8c0.2,0.6,0.4,1.3-0.4,1.5c-0.3,0.1-1-0.4-1.2-0.8
					c-1-2.4-1.9-4.8-2.7-7.2c-0.1-0.6,0-1.2,0.4-1.6c0.5-0.2,1.1-0.2,1.6,0.1C51.3,50.2,52.3,50.9,53.3,51.6z"/>
				<path id="e80k742hpsdj22" d="M63.3,53.9c0.1,0.4,0.1,0.8,0,1.2c-0.1,0.4-0.3,1-0.9,1s-0.8-0.5-0.9-0.8c-0.2-0.9-0.4-1.9-0.5-2.9
					c-0.2-2.3-0.3-4.6-0.3-6.9c0-0.6,0.4-1.7,0.9-1.8c0.7-0.1,1.5,0.1,2.1,0.6c2.2,2.3,4.3,4.7,6.3,7.2c0.5,0.6,0.9,1.4,0.2,2
					c-0.7,0.6-1.5,0.2-2-0.5c-0.4-0.4-0.7-0.8-0.9-1.3c-0.4-0.8-1.3-1.2-2.1-0.8L65,50.9C62.9,51.7,63.2,51.4,63.3,53.9z M63.3,47
					H63l0.2,2.7l1.5-0.8L63.3,47z"/>
				<path id="e80k742hpsdj23" d="M73.2,42.6c-1.7,0.6-3.2,1.2-4.7,1.6C68,44.2,67.4,44,67,43.6c-0.4-0.7,0-1.3,0.8-1.6
					c1.7-0.6,3.3-1.3,5.1-1.8c0.6-0.1,1.2,0.1,1.7,0.5c1.4,2.2,2.3,4.7,2.5,7.3c0.1,2-1.5,3.6-3.5,3.7c-0.3,0-0.7,0-1-0.1
					c-0.6-0.1-1.1-0.4-1.5-0.9c-0.3-0.6-0.8-1.3-0.4-1.8c0.4-0.4,1.1,0.2,1.7,0.2s1.6,0.3,2.1,0c0.5-0.5,0.7-1.2,0.5-1.8
					C74.4,45.7,73.8,44.2,73.2,42.6z"/>
			</g>
		</g>
	</g>
</g>
</svg>
